<svg aria-hidden="true" style="position: absolute; width: 0; height: 0; overflow: hidden;" version="1.1" xmlns="http://www.w3.org/2000/svg" xmlns:xlink="http://www.w3.org/1999/xlink">
<defs>
<symbol id="icon-pet" viewBox="0 0 32 32">
<path d="M7.895 28.628c2.368 1.211 5.026 1.842 7.684 1.895 0.132 0 0.289 0 0.421 0 2.684 0 5.342-0.579 7.763-1.737 2.21-1.053 4.211-2.632 5.684-4.605 1.684-2.263 2.552-4.974 2.552-7.79 0-1.789 0-3.553 0-5.342 0-1.947 0-3.868 0-5.816 0-0.684 0-1.368 0-2.026 0-1.237-1.237-2.053-2.368-1.605l-6 2.5c-0.395 0.158-0.842 0.184-1.237 0.026-1.947-0.763-4.105-1.158-6.395-1.158s-4.447 0.421-6.395 1.158c-0.395 0.158-0.842 0.132-1.237-0.026l-6-2.421c-1.132-0.474-2.368 0.368-2.368 1.605 0 0.921 0 1.868 0 2.789 0 1.921 0 3.842 0 5.789 0 1.632 0 3.237 0 4.868 0 2.605 0.842 5.132 2.342 7.237 1.421 1.974 3.368 3.553 5.553 4.658zM21.842 16.443c1.447 0 2.632 1.184 2.632 2.632s-1.184 2.632-2.632 2.632-2.632-1.184-2.632-2.632c0-1.473 1.184-2.632 2.632-2.632zM10.158 16.443c1.447 0 2.632 1.184 2.632 2.632s-1.184 2.632-2.632 2.632-2.632-1.184-2.632-2.632c0-1.473 1.184-2.632 2.632-2.632z"></path>
</symbol>
<symbol id="icon-edit" viewBox="0 0 31 32">
<path d="M24.641 0.521c-0.38-0.354-0.818-0.544-1.307-0.518-0.49 0-0.927 0.19-1.281 0.573l-2.888 2.997 8.091 7.82 2.914-3.052c0.354-0.354 0.49-0.818 0.49-1.307s-0.19-0.953-0.544-1.281l-5.474-5.232zM10.792 28.536c-1.063 0.354-2.151 0.682-3.216 1.036-1.063 0.354-2.125 0.708-3.216 1.063-2.534 0.818-3.924 1.281-4.224 1.362s-0.109-1.089 0.518-3.542l2.016-7.711 0.167-0.172 7.956 7.964zM5.781 17.513l11.195-11.672 8.091 7.792-11.331 11.836-7.956-7.956z"></path>
</symbol>
<symbol id="icon-logo" viewBox="0 0 23 32">
<path d="M5.456 14.756c0.864 1.917 0.6 3.905-0.59 4.442s-2.855-0.582-3.719-2.499c-0.864-1.917-0.6-3.905 0.59-4.442s2.855 0.582 3.719 2.498z"></path>
<path d="M17.217 14.756c-0.864 1.917-0.6 3.905 0.59 4.442s2.855-0.582 3.719-2.499c0.864-1.917 0.6-3.905-0.59-4.442s-2.855 0.582-3.719 2.498z"></path>
<path d="M10.514 10.914c0.443 2.055-0.232 3.944-1.508 4.219s-2.669-1.168-3.112-3.223c-0.443-2.055 0.232-3.944 1.508-4.219s2.669 1.168 3.112 3.223z"></path>
<path d="M12.128 10.915c-0.443 2.055 0.232 3.944 1.508 4.219s2.669-1.168 3.112-3.223c0.443-2.055-0.232-3.944-1.508-4.219s-2.669 1.168-3.112 3.223z"></path>
<path d="M8.917 17.784c-0.311 0.538-1.754 2.318-2.752 2.926s-2.235 1.497-2.027 3.539c0.207 2.043 2.302 2.917 3.682 2.839s3.98-0.331 5.836-0.074c1.856 0.257 4.2 0.062 4.748-1.893s-0.678-3.202-1.636-3.909c-0.958-0.707-2.557-2.82-3.049-3.791s-3-2.747-4.801 0.362z"></path>
</symbol>
<symbol id="icon-sing" viewBox="0 0 32 32">
<path d="M13.333 23v-4.333h-9.333v-5.333h9.333v-4.333l7 7-7 7zM10.667 2.667h12c1.473 0 2.667 1.194 2.667 2.667v21.333c0 1.473-1.194 2.667-2.667 2.667h-12c-1.473 0-2.667-1.194-2.667-2.667v0-5.333h2.667v5.333h12v-21.333h-12v5.333h-2.667v-5.333c0-1.473 1.194-2.667 2.667-2.667v0z"></path>
</symbol>
</defs>
</svg>
